<?xml version="1.0" encoding="UTF-8"?><svg width="1950" height="571" viewBox="0 0 1950 571" fill="none" xmlns="http://www.w3.org/2000/svg">
<rect width="1950" height="571" fill="#059F9A"/>
<mask id="mask0_4128_67592" style="mask-type:alpha" maskUnits="userSpaceOnUse" x="0" y="0" width="1950" height="571">
<rect width="1950" height="571" fill="#059F9A"/>
</mask>
<g mask="url(#mask0_4128_67592)">
<g style="mix-blend-mode:hard-light" opacity="0.15">
<path d="M833.086 633.195L229.395 706.349L224.385 2.50935L1431.77 -156.388L833.086 633.195Z" fill="url(#paint0_radial_4128_67592)"/>
<path d="M873.966 645.654L1464.96 -136.386L1431.68 -156.551L833.086 633.193L873.966 645.654Z" fill="#C1C1C1"/>
<path d="M501.803 455.033L-25.6855 518.93L-30.061 -95.8321L1024.65 -234.581L501.803 455.033Z" fill="url(#paint1_radial_4128_67592)"/>
<path d="M537.692 465.937L1053.91 -217.151L1024.84 -234.765L501.986 455.053L537.692 465.937Z" fill="#C1C1C1"/>
<path d="M537.692 465.937L14.8562 532.031L-25.32 518.951L501.986 455.053L537.692 465.937Z" fill="#9D9D9D"/>
<path d="M190.065 216.624L-214.624 265.663L-217.982 -206.161L589.638 -311.066L190.065 216.624Z" fill="url(#paint2_radial_4128_67592)"/>
<path d="M217.469 224.976L613.648 -299.271L591.335 -312.788L190.065 216.623L217.469 224.976Z" fill="#C1C1C1"/>
<path d="M217.469 224.976L-183.79 275.701L-214.624 265.663L190.065 216.623L217.469 224.976Z" fill="#9D9D9D"/>
<path d="M-126.425 37.617L-454.143 77.3292L-456.862 -304.755L197.151 -389.707L-126.425 37.617Z" fill="url(#paint3_radial_4128_67592)"/>
<path d="M-104.234 44.3808L216.594 -380.155L198.524 -391.102L-126.425 37.6166L-104.234 44.3808Z" fill="#C1C1C1"/>
</g>
</g>
<defs>
<radialGradient id="paint0_radial_4128_67592" cx="0" cy="0" r="1" gradientUnits="userSpaceOnUse" gradientTransform="translate(257.849 432.24) rotate(-28.527) scale(881.958 486.764)">
<stop offset="0.00520833" stop-color="#A3A3A3"/>
<stop offset="1" stop-color="#F7F7F7"/>
</radialGradient>
<radialGradient id="paint1_radial_4128_67592" cx="0" cy="0" r="1" gradientUnits="userSpaceOnUse" gradientTransform="translate(-27.8757 211.21) rotate(-17.3979) scale(667.874 448.422)">
<stop offset="0.00520833" stop-color="#9C9C9C"/>
<stop offset="1" stop-color="#F7F7F7"/>
</radialGradient>
<radialGradient id="paint2_radial_4128_67592" cx="0" cy="0" r="1" gradientUnits="userSpaceOnUse" gradientTransform="translate(-203.542 42.6521) rotate(-20.4746) scale(480.155 293.177)">
<stop offset="0.00520833" stop-color="#BABABA"/>
<stop offset="1" stop-color="#F7F7F7"/>
</radialGradient>
<radialGradient id="paint3_radial_4128_67592" cx="0" cy="0" r="1" gradientUnits="userSpaceOnUse" gradientTransform="translate(-454.557 19.0918) rotate(-32.2085) scale(360.734 292.385)">
<stop stop-color="#DADADA"/>
<stop offset="1" stop-color="#F7F7F7"/>
</radialGradient>
</defs>
</svg>
